<?xml version="1.0" standalone="no"?>
<!DOCTYPE svg PUBLIC "-//W3C//DTD SVG 20010904//EN"
 "http://www.w3.org/TR/2001/REC-SVG-20010904/DTD/svg10.dtd">
<svg version="1.0" xmlns="http://www.w3.org/2000/svg"
 width="700.000000pt" height="597.000000pt" viewBox="0 0 700.000000 597.000000"
 preserveAspectRatio="xMidYMid meet">

<g transform="translate(0.000000,597.000000) scale(0.100000,-0.100000)"
fill="#000000" stroke="none">
<path d="M3387 4183 c-4 -3 -7 -42 -7 -85 l0 -78 -90 0 c-83 0 -90 -1 -90 -20
0 -19 7 -20 90 -20 l90 0 0 -250 0 -250 25 0 25 0 0 250 0 250 95 0 c88 0 95
1 95 20 0 19 -7 20 -95 20 l-95 0 0 85 c0 76 -2 85 -18 85 -10 0 -22 -3 -25
-7z"/>
<path d="M1840 2750 l0 -1010 625 0 c410 0 625 3 625 10 0 7 -212 10 -615 10
l-615 0 2 993 3 992 565 5 565 5 -577 3 -578 2 0 -1010z"/>
<path d="M4353 3753 l567 -3 0 -995 0 -995 -610 0 c-400 0 -610 -3 -610 -10 0
-7 213 -10 620 -10 l620 0 0 1010 0 1010 -577 -2 -578 -3 568 -2z"/>
<path d="M2397 2453 c-3 -10 -9 -75 -13 -145 -5 -111 -4 -128 9 -128 12 0 16
20 22 98 3 53 7 108 8 122 1 15 18 -23 42 -95 27 -81 45 -120 55 -120 10 0 28
40 56 119 l41 119 6 -54 c4 -30 7 -84 7 -121 0 -62 2 -68 21 -68 19 0 20 4 15
68 -3 37 -8 102 -12 145 -5 72 -7 77 -28 77 -21 0 -28 -13 -62 -114 -21 -63
-40 -113 -42 -111 -2 1 -20 52 -41 112 -30 88 -41 109 -58 111 -14 2 -23 -3
-26 -15z"/>
<path d="M2760 2325 c0 -138 1 -145 20 -145 19 0 20 7 20 145 0 138 -1 145
-20 145 -19 0 -20 -7 -20 -145z"/>
<path d="M2910 2325 c0 -122 2 -145 15 -145 12 0 15 20 15 117 l0 118 71 -118
c101 -164 109 -162 109 28 0 122 -2 145 -15 145 -13 0 -15 -20 -15 -122 0
-118 -1 -122 -16 -93 -52 101 -130 215 -146 215 -16 0 -18 -12 -18 -145z"/>
<path d="M3220 2325 c0 -138 1 -145 20 -145 19 0 20 7 20 145 0 138 -1 145
-20 145 -19 0 -20 -7 -20 -145z"/>
<path d="M3403 2460 c-12 -5 -29 -20 -39 -35 -26 -40 -5 -77 62 -109 48 -23
54 -29 54 -56 0 -39 -28 -54 -86 -45 -35 5 -44 3 -44 -9 0 -22 87 -33 119 -15
68 38 65 108 -5 143 -55 28 -74 45 -74 67 0 25 36 42 76 36 22 -4 34 -1 38 8
8 22 -58 32 -101 15z"/>
<path d="M3570 2455 c0 -11 12 -15 45 -15 l45 0 0 -130 c0 -123 1 -130 20
-130 19 0 20 7 20 130 l0 130 40 0 c29 0 40 4 40 15 0 12 -18 15 -105 15 -87
0 -105 -3 -105 -15z"/>
<path d="M3863 2463 c-10 -3 -13 -42 -13 -144 0 -132 1 -139 20 -139 18 0 20
7 20 60 0 57 1 60 24 60 44 0 56 -11 72 -66 11 -40 20 -54 34 -54 17 0 17 3 3
53 -9 28 -21 59 -29 67 -11 13 -9 19 12 39 39 37 31 92 -17 116 -27 14 -100
19 -126 8z m108 -33 c24 -13 25 -57 2 -82 -9 -10 -30 -18 -50 -18 l-33 0 0 55
c0 55 0 55 31 55 17 0 39 -5 50 -10z"/>
<path d="M4144 2386 c41 -73 46 -90 46 -145 0 -54 2 -61 20 -61 18 0 20 7 20
66 0 58 4 74 34 123 58 98 60 101 36 101 -15 0 -28 -17 -52 -65 -18 -36 -35
-65 -38 -65 -3 0 -20 29 -38 65 -24 49 -37 65 -52 65 -19 0 -17 -7 24 -84z"/>
<path d="M3386 1980 c-3 -8 -14 -37 -23 -65 -20 -54 -33 -61 -120 -64 -24 0
-43 -4 -43 -8 1 -5 23 -25 50 -46 28 -21 50 -42 50 -47 0 -4 -9 -37 -20 -71
-10 -35 -17 -65 -15 -67 2 -2 28 15 59 37 30 23 60 41 66 41 6 0 37 -18 67
-40 31 -22 58 -38 60 -36 3 2 -5 35 -17 73 -20 66 -20 68 -2 83 10 8 36 29 58
47 l39 32 -50 2 c-99 3 -106 7 -131 79 -13 39 -24 59 -28 50z"/>
</g>
</svg>
